<svg xmlns="http://www.w3.org/2000/svg" width="3136" height="2130" xmlns:v="https://vecta.io/nano"><path d="M1559.076-.185l15.72-.021C1623.499-.331 1672.13.83 1720.75 3.75l4.232.25c91.143 5.401 182 15.719 439.018 66l2.911.713C2214.437 82.368 2261.439 95.961 2308 111l2.977.96c58.338 18.848 115.952 40.207 172.023 65.04l3.501 1.547L2512 190l3.37 1.533c29.24 13.343 58.324 27.232 86.63 42.467l2.674 1.437 16.476 8.99 5.793 3.188c15.892 8.732 31.42 17.969 46.874 27.443l10.98 6.584c20.235 12.013 39.87 24.948 59.203 38.357l2.605 1.805c16.399 11.378 32.64 22.937 48.395 35.195l4.712 3.592c6.971 5.319 13.779 10.829 20.569 16.377l8.906 7.156c5.46 4.357 10.779 8.875 16.092 13.409l5.205 4.416c6.989 5.931 13.806 12.012 20.512 18.262l7.816 7.102c11.734 10.557 23.078 21.478 34.25 32.625l1.638 1.63c5.458 5.437 10.868 10.876 15.846 16.764 1.576 1.808 3.241 3.489 4.953 5.168 3.014 2.967 5.799 6.073 8.559 9.277 2.229 2.552 4.521 5.042 6.816 7.535 4.094 4.489 7.98 9.1 11.793 13.828 2.037 2.497 4.115 4.951 6.217 7.394 6.466 7.531 12.482 15.37 18.463 23.289l4.875 6.336c11.969 15.434 23.14 31.46 33.777 47.84l1.364 2.101c45.432 70.28 78.593 147.116 106.636 407.899l-.375 3.926c-7.256 74.801-29.035 147.485-61.625 215.074l-1.578 3.272c-7.562 15.586-15.704 30.761-24.422 45.728l-1.382 2.406c-6.78 11.797-14.202 23.15-21.743 34.469l-1.404 2.11c-8.155 12.231-16.557 24.275-25.408 36.015l-1.505 2.001c-10.094 13.371-20.605 26.393-31.463 39.15-3.002 3.533-5.936 7.113-8.845 10.724-3.023 3.717-6.158 7.15-9.598 10.48-1.661 1.653-3.189 3.367-4.715 5.145-3.53 4.089-7.192 8.048-10.875 12l-1.737 1.869c-4.341 4.646-8.807 9.158-13.326 13.631l2.316.531c19.402 4.505 36.94 8.672 52.684 21.469l1.91 1.383c10.497 7.986 18.446 22.571 20.809 35.383 1.319 10.479-.353 21.036-5.719 30.234l3.484.367c19.761 2.494 34.956 11.585 47.344 27.125 7.963 10.281 15.149 21.145 22.42 31.919l7.501 10.964 2.617 3.801 1.296 1.881 4.282 6.236 1.485 2.165 2.779 4.054 1.282 1.868 1.237 1.817a93.45 93.45 0 0 0 2.736 3.683c3.568 4.624 3.568 4.624 3.397 7.149-1.099 2.512-2.272 3.317-4.554 4.82l-2.339 1.567-2.532 1.648-5.242 3.496-2.659 1.757-10.724 7.309-3.918 2.695-1.943 1.337-9.952 6.843-4 2.75-153.998 105.874-4.017 2.762-9.739 6.688-3.809 2.613-1.963 1.347-11.752 8.153-33.391 22.733c-5.678 3.751-11.22 7.642-16.707 11.669-3.881 2.825-7.841 5.528-11.813 8.223l-4.969 3.387-2.469 1.681-10.562 7.245-1.964 1.351-3.897 2.681-9.952 6.843-4 2.75-104 71.5-2.002 1.377-3.978 2.733-10.336 7.136-2.154 1.492-4.039 2.809c-4.052 2.803-8.181 5.313-12.49 7.703l-2.16-3.148L2598 1938c-8.012 1.565-15.599 4.096-23.312 6.734l-4.198 1.423-11.177 3.804-11.658 3.963-24.734 8.421-8.32 2.836-22.345 7.63-36.881 12.565-12.758 4.336-3.19 1.084L2406.5 2002l-48.5 16.5-66.173 22.516-14.625 4.979-5.886 2.004-14.595 4.966-27.662 9.446-13.141 4.503-6.295 2.164-8.7 2.984-2.616.906-2.397.816-2.08.715c-1.829.5-1.829.5-4.829.5l-1.5-4.312-.844-2.426C2186 2066 2186 2066 2186 2063l-1.902.339-60.973 10.849-2.336.416L2005.563 2095l-2.331.409L1977 2100l-1 11c-8.863 1.174-17.761 1.446-26.685 1.804l-5.436.225-14.902.609-16.086.66-31.504 1.289-25.615 1.047-3.684.151-7.409.304-69.481 2.838-59.571 2.437-69.206 2.834-7.387.302-3.671.15-25.565 1.048-31.185 1.274-15.9.65-14.579.594-5.251.216c-10.302.43-20.57.663-30.882.57-1.706-3.412-1.339-7.32-1.481-11.08l-.119-2.854-.373-9.382-.265-6.518-.547-13.692-.703-17.505-.543-13.479-.26-6.45-.359-9.054-.109-2.669c-.21-5.443-.274-10.869-.243-16.317l-1.901.185-7.912.753-2.697.264c-16.708 1.561-33.405 2.002-50.178 1.986h-2.983c-27.822-.024-55.658-1.205-83.329-4.188l-.146 2.584c-.66 10.79-1.75 21.511-2.92 32.256l-.601 5.586-1.573 14.544-1.609 14.904L1348 2119c-3.325 1.108-5.121.937-8.58.564l-3.54-.372-3.907-.431-4.137-.441-11.392-1.232-12.276-1.321-24.058-2.598-27.994-3.023-49.932-5.396-48.497-5.238-61.179-6.601-19.532-2.107-23.787-2.572-12.146-1.313-11.104-1.203-5.951-.639-3.532-.388-3.067-.332C1011 2084 1011 2084 1009 2083c.683-14.063 2.381-28.02 4-42l-3.566.586L993 2044l-2.463.338c-33.651 4.349-68.913 2.595-102.537-1.338l-2.145-.25c-68.257-8.066-135.113-27.156-199.855-49.75l-2.132-.744c-27.642-9.665-54.662-20.551-81.181-33.001l-7.589-3.486c-12.786-5.85-24.98-12.647-37.098-19.77l-2.351-1.38c-15.895-9.419-43.062-25.701-49.459-43.928-1.098-2.83-1.993-4.577-4.19-6.692-4.499-1.085-8.884-1.057-13.478-.933-3.855.099-7.709.044-11.565.015l-2.334-.004C420.418 1882.87 368.136 1857.067 322 1831l-3.104-1.742c-13.89-7.81-27.413-16.021-40.692-24.829-4.472-2.966-9.004-5.813-13.578-8.617-6.936-4.277-13.566-8.928-20.191-13.668-3.87-2.763-7.792-5.443-11.73-8.108-7.893-5.344-15.539-10.856-23.038-16.744l-9.604-7.229c-15.195-11.356-29.896-23.295-44.336-35.595l-5.383-4.554c-5.74-4.86-11.334-9.735-16.574-15.141-1.751-1.755-3.568-3.357-5.457-4.961-8.104-6.983-15.759-14.727-22.664-22.895-1.169-1.361-2.377-2.689-3.609-3.992-15.513-16.493-31.752-37.691-31.477-61.238l.023-2.777c.181-7.505 1.438-13.981 4.415-20.91l1.145-2.82c4.12-9.137 10.291-16.922 16.217-24.937 2.429-3.325 4.759-6.715 7.076-10.118l10.606-15.35 3.529-5.054 9.325-13.018c8.345-11.086 8.345-11.086 12.625-24.109 2.567-13.97 15.363-25.953 26.488-33.687 13.042-8.026 31.422-15.705 46.988-14.906-4.514-5.311-9.233-10.417-14-15.5s-9.487-10.187-14-15.5l-2.543-2.98L161 1379l-1.33-1.63c-7.971-9.773-15.533-19.809-22.948-30.009l-4.901-6.658c-20.687-28.064-39.121-58.101-55.359-88.94l-4.215-7.833C48.118 1199.288 29.789 1150.323 18 1101l-.505-2.1C12.258 1077.081 7.988 1055.242 5 1033l-.464-3.443C-5.279 954.519.189 877.809 145 550l1.712-2.24c6.728-8.777 13.566-17.421 20.772-25.811 2.407-2.822 4.749-5.687 7.078-8.574 3.877-4.765 7.952-9.311 12.109-13.832 1.935-2.114 3.83-4.25 5.703-6.418 7.243-8.319 14.775-16.355 22.629-24.098 1.838-1.867 3.55-3.782 5.246-5.777 6.928-8.058 14.626-15.575 22.727-22.445 2.614-2.331 5.065-4.813 7.523-7.305 3.638-3.682 7.346-7.207 11.285-10.566 2.328-2.033 4.587-4.128 6.845-6.237 5.427-5.068 10.959-9.896 16.753-14.548 2.636-2.164 5.161-4.412 7.68-6.711 3.902-3.547 7.91-6.885 12.051-10.148l8.629-6.973c7.019-5.734 14.102-11.357 21.32-16.839l6.817-5.231c10.179-7.821 20.451-15.447 30.998-22.764l6.393-4.525C395.853 317.155 412.935 306.089 430 295l2.919-1.899c14.473-9.383 29.373-18.08 44.233-26.832l10.258-6.073c14.959-8.848 30.211-17.107 45.59-25.195l3.194-1.685c31.161-16.406 62.613-32.288 94.818-46.546l10.062-4.504c93.78-42.248 191.979-75.506 803.551-180.016l3.778-.179L1474 1l3.63-.147c27.14-1.072 54.289-1.041 81.446-1.039zM1843 1894l1.513 39.045.703 18.138.681 17.565.257 6.639.606 15.477.489 12.951.25 6.614.108 3.127.112 2.872.092 2.535c.072 2.102.072 2.102 1.19 4.035 10.034.177 19.991-.377 30-1-.573-7.606-1.581-15.038-2.934-22.542l-.587-3.32-1.917-10.754-1.334-7.517-2.794-15.699-3.935-22.117-5.566-31.283-.551-3.095-.51-2.854-.44-2.468L1857 1893l-4.187-.062-2.355-.035c-2.579.103-4.935.567-7.457 1.098z" fill="#00f"/><path d="M1244 326h2l3 13.25.867 3.801.82 3.652.762 3.364C1252 353 1252 353 1252 357l2.375.875C1257 359 1257 359 1259 361c12.963 1.33 26.78-.583 39.75-1.312l3.672-.203 50.279-3.239 37.818-2.362 35.249-2.129L1512 347l2.358-.103c77.881-3.405 156.185-5.401 234.066-1.036l13.369.647c14.592.686 29.13 1.462 43.64 3.204l13.133 1.295 36.613 3.742 4.426.487c8.892.97 17.639 2.279 26.417 3.997 3.952.773 7.916 1.459 11.887 2.127 25.206 4.276 50.316 9.028 74.693 16.879l8.623 2.653c39.485 12.142 78.559 28.782 110.773 55.109l1.583 1.275c38.17 30.826 63.565 74.245 68.949 123.401 1.856 21.444 1.116 43.126-2.531 64.324l-.645 4.063L2158 637l1.899-.044c7.912-.1 15.67.517 23.539 1.294l2.09.205 11.037 1.101 8.582.834c50.946 4.755 101.438 13.935 149.854 30.61l3.059 1.03c56.324 19.003 108.636 53.016 136.105 107.169 4.43 8.997 8.108 18.136 10.836 27.801l.644 2.262c10.875 39.184 9.825 81.943.859 121.433-.516 2.367-.967 4.738-1.401 7.122-8.853 48.304-29.243 94.375-48.334 139.31l-12.089 28.58-5.917 14.016-1.186 2.808-7.215 17.086L2407 1195l-24.577 58.262-7.185 17.015-1.186 2.808-3.553 8.414-13.139 31.117L2334 1368l-24.577 58.262-7.185 17.015-1.186 2.808-3.553 8.414-13.139 31.117-4.848 11.479-2.39 5.66-12.626 29.956-1.095 2.605-5.064 12.057-1.822 4.334-.768 1.835L2246 1576h-251c.745-3.725 1.439-6.357 2.892-9.747l1.192-2.802 1.307-3.029 1.369-3.205 4.491-10.467 3.146-7.354 7.273-16.967 7.721-18.008 7.697-17.954 19.225-45.031 23.625-55.312 1.504-3.507 12.069-28.139 42.893-100.376 6.084-14.288 29.32-69.561 4.252-10.172 26.651-65.115 2.327-5.784c6.684-16.606 13.027-33.295 18.963-50.183l.726-2.041c8.161-22.954 11.955-51.089 1.989-73.9-11.239-22.509-34.349-33.038-57.011-40.708A321.05 321.05 0 0 0 2124 912l-3.281-.624c-14.474-2.723-28.979-4.908-43.594-6.689l-2.152-.264-6.09-.724-3.519-.411c-3.471-.297-6.882-.337-10.364-.288l-28.062 66.625-1.116 2.667L2018 991l-8.937 21.375-1.12 2.678-18.64 44.279-18.419 43.84-17.258 41.015L1934 1191l-19.625 46.813-18.437 43.813-1.121 2.68L1887 1303l-8.937 21.375-1.12 2.678-18.639 44.277-17.366 41.295-1.121 2.679L1832 1434l-8.937 21.375-1.12 2.678-18.629 44.253-20.177 48.024-2.086 4.99-1.007 2.41L1769 1584l-77.281 1.505-15.608.16-26.228.265-26.549.271-138.334.8c.75-4.045 1.926-7.464 3.57-11.246l.813-1.883 1.785-4.112 5.09-11.763 1.13-2.613 8.917-20.848 1.393-3.28 2.85-6.711 35.171-81.601 4.774-10.971 28.112-64.242 7.865-17.917 28.948-65.708 8.302-18.792 24.469-55.25 1.273-2.863 11.713-26.326 23.901-54.096 15.346-34.805 24.551-56.255 4.147-9.629 49.055-117.641 1.168-2.902 2.159-5.378.959-2.387.833-2.078A58.34 58.34 0 0 1 1785 892h-188l-3 9c-.587 1.526-1.191 3.045-1.831 4.55l-.997 2.361-1.058 2.476-1.133 2.673-3.668 8.627-2.58 6.084-5.242 12.355-9.534 22.598-25.534 60.538-7.185 17.015-1.186 2.808-3.553 8.414-13.139 31.117L1494 1138l-24.577 58.262-7.185 17.015-1.186 2.808-3.553 8.414-13.139 31.117L1421 1311l-17.312 41.063-1.201 2.843-9.706 22.98-8.469 20.052-1.201 2.845L1367 1439l-23.329 55.306-7.426 17.596-4.988 11.825-2.32 5.503L1309 1576h-298c1.946-5.838 3.917-11.427 6.344-17.047l.973-2.279 2.087-4.872 4.529-10.589 2.397-5.611 13.233-31.227 2.418-5.729 15.992-37.956 16.34-38.752 1.201-2.843 9.706-22.98 8.469-20.052 1.201-2.845L1112 1335l24.577-58.262 7.185-17.015 1.186-2.808 3.553-8.414 13.139-31.117L1185 1162l24.577-58.262 7.185-17.015 1.186-2.808 3.553-8.414 14.355-33.996 29.115-69.055 3.18-7.562 51.747-128.015 3.155-8.203c20.181-52.4 39.422-105.175 57.986-158.169l.941-2.684 4.278-12.272.757-2.173 1.98-5.702C1390 645 1390 645 1391 644c1.535-.099 3.074-.128 4.612-.13l3.04-.011 3.381.003 3.56-.009 9.827-.01 10.581-.016 18.349-.026 28.987-.053 9.908-.022 2.501-.006 28.21-.058 2.606-.005 41.819-.062 42.894-.085 26.48-.039 18.139-.036 10.476-.013 11.341-.03 3.367.017 3.056-.027 2.646-.004c2.707-.461 3.56-1.229 5.218-3.378 1.013-2.443 1.013-2.443 1.754-5.219l.9-3.074.908-3.207 1.816-6.281.799-2.814C1689 617 1689 617 1691 614l6 13 1.066 2.316c1.238 2.769 1.934 4.607 1.934 7.684l2.188.313c3.379.826 6.321 2.196 8.813 4.688 3.707.251 7.434.162 11.148.152l3.519-.006c13.333-.08 26.628-.771 39.939-1.478l18.624-.934 2.056-.101c17.896-.874 35.799-1.337 53.714-1.633-7.657-19.287-18.528-32.186-37.687-41.003-17.122-7.381-34.939-11.282-53.313-13.997l-3.769-.562c-16.411-2.363-32.858-3.799-49.418-4.54l-2.854-.129c-31.713-1.369-63.483-1.033-95.217-.97l-21.197.015c-8.644-.001-17.287.006-25.931.015l-7.243.003c-18.82.006-37.609.276-56.42.866l-2.117.066-2.074.065-24.35.43-7.867.077-16.73.163-22.105.219-2.79.029-27.91.504-2.218.068-2.24.069c-31.475.963-62.97.726-94.456.683l-25.613-.022L1204 580l-.592 1.807c-1.311 3.972-2.618 7.921-4.222 11.786l-.988 2.393-1.049 2.514-1.125 2.716-3.649 8.784-2.568 6.194-5.26 12.675-6.984 16.838-9.427 22.734-10.572 25.493-3.185 7.681-9.618 23.201-22.181 53.389-21.423 51.589-9.597 23.148-5.31 12.807-2.125 5.125-1.062 2.563-4.25 10.25-2.125 5.126-5.308 12.801-9.618 23.202-22.181 53.389-21.423 51.589-11.717 28.262-3.182 7.674-1.061 2.559-6.435 15.526-22.181 53.389-21.423 51.589-11.717 28.262-3.182 7.674-1.061 2.559-6.435 15.526-5.386 12.997-1.069 2.58-11.216 26.99-.956 2.293-3.739 8.96-10.406 25.129-.989 2.412-4.697 11.479-1.669 4.074-1.472 3.606C887 1346 887 1346 886 1347a67.76 67.76 0 0 1-4.449.123l-2.93.006-3.257-.009-3.43.003c-3.825.002-7.65-.004-11.475-.009-2.729-.001-5.458 0-8.188 0-5.892.001-11.784-.003-17.676-.008l-25.557-.012-41.46-.018-40.285-.021-2.506-.001-12.448-.004L609 1347l1.401-4.249.788-2.39c1.226-3.57 2.659-7.042 4.12-10.522l.964-2.32 3.164-7.582 2.266-5.443 4.817-11.553 7.347-17.629 11.306-27.133 12.58-30.186L664 1213l2.5-6 25-60 1.25-3 2.5-6.001 6.243-14.984 11.334-27.195 24.673-59.32 25.952-62.387 11.301-27.12L781 932l2.5-6 85-204 1.25-3 2.5-6 6.25-15.005 11.25-26.944C908.514 626.304 926.447 581.235 944 536l1.164-2.999 47.961-126.868 1.195-3.239 5.417-14.739 1.9-5.17.818-2.245c2.333-6.341 4.938-12.482 7.546-18.739h222c2.505-4.888 2.505-4.888 4.246-9.848l.593-2.067.598-2.148 1.289-4.5.642-2.25c1.469-5.085 3.059-10.134 4.632-15.187z" fill="#fcfafc"/><path d="M1559.076-.185l15.72-.021C1623.499-.331 1672.13.83 1720.75 3.75l4.232.25c91.143 5.401 182 15.719 439.018 66l2.911.713C2214.437 82.368 2261.439 95.961 2308 111l2.977.96c58.338 18.848 115.952 40.207 172.023 65.04l3.501 1.547L2512 190l3.37 1.533c29.24 13.343 58.324 27.232 86.63 42.467l2.674 1.437 16.476 8.99 5.793 3.188c15.892 8.732 31.42 17.969 46.874 27.443l10.98 6.584c20.235 12.013 39.87 24.948 59.203 38.357l2.605 1.805c16.399 11.378 32.64 22.937 48.395 35.195l4.712 3.592c6.971 5.319 13.779 10.829 20.569 16.377l8.906 7.156c5.46 4.357 10.779 8.875 16.092 13.409l5.205 4.416c6.989 5.931 13.806 12.012 20.512 18.262l7.816 7.102c11.734 10.557 23.078 21.478 34.25 32.625l1.638 1.63c5.458 5.437 10.868 10.876 15.846 16.764 1.576 1.808 3.241 3.489 4.953 5.168 3.014 2.967 5.799 6.073 8.559 9.277 2.229 2.552 4.521 5.042 6.816 7.535 4.094 4.489 7.98 9.1 11.793 13.828 2.037 2.497 4.115 4.951 6.217 7.394 6.466 7.531 12.482 15.37 18.463 23.289l4.875 6.336c11.969 15.434 23.14 31.46 33.777 47.84l1.364 2.101c45.432 70.28 78.593 147.116 106.636 407.899l-.375 3.926c-7.256 74.801-29.035 147.485-61.625 215.074l-1.578 3.272c-7.562 15.586-15.704 30.761-24.422 45.728l-1.382 2.406c-6.78 11.797-14.202 23.15-21.743 34.469l-1.404 2.11c-8.155 12.231-16.557 24.275-25.408 36.015l-1.505 2.001c-10.094 13.371-20.605 26.393-31.463 39.15-3.002 3.533-5.936 7.113-8.845 10.724-3.023 3.717-6.158 7.15-9.598 10.48-1.661 1.653-3.189 3.367-4.715 5.145-3.53 4.089-7.192 8.048-10.875 12l-1.737 1.869c-4.341 4.646-8.807 9.158-13.326 13.631l2.316.531c19.402 4.505 36.94 8.672 52.684 21.469l1.91 1.383c10.497 7.986 18.446 22.571 20.809 35.383 1.319 10.479-.353 21.036-5.719 30.234l3.484.367c19.761 2.494 34.956 11.585 47.344 27.125 7.963 10.281 15.149 21.145 22.42 31.919l7.501 10.964 2.617 3.801 1.296 1.881 4.282 6.236 1.485 2.165 2.779 4.054 1.282 1.868 1.237 1.817a93.45 93.45 0 0 0 2.736 3.683c3.568 4.624 3.568 4.624 3.397 7.149-1.099 2.512-2.272 3.317-4.554 4.82l-2.339 1.567-2.532 1.648-5.242 3.496-2.659 1.757-10.724 7.309-3.918 2.695-1.943 1.337-9.952 6.843-4 2.75-153.998 105.874-4.017 2.762-9.739 6.688-3.809 2.613-1.963 1.347-11.752 8.153-33.391 22.733c-5.678 3.751-11.22 7.642-16.707 11.669-3.881 2.825-7.841 5.528-11.813 8.223l-4.969 3.387-2.469 1.681-10.562 7.245-1.964 1.351-3.897 2.681-9.952 6.843-4 2.75-104 71.5-2.002 1.377-3.978 2.733-10.336 7.136-2.154 1.492-4.039 2.809c-4.052 2.803-8.181 5.313-12.49 7.703l-2.16-3.148L2598 1938c-8.012 1.565-15.599 4.096-23.312 6.734l-4.198 1.423-11.177 3.804-11.658 3.963-24.734 8.421-8.32 2.836-22.345 7.63-36.881 12.565-12.758 4.336-3.19 1.084L2406.5 2002l-48.5 16.5-66.173 22.516-14.625 4.979-5.886 2.004-14.595 4.966-27.662 9.446-13.141 4.503-6.295 2.164-8.7 2.984-2.616.906-2.397.816-2.08.715c-1.829.5-1.829.5-4.829.5l-1.5-4.312-.844-2.426C2186 2066 2186 2066 2186 2063l-1.902.339-60.973 10.849-2.336.416L2005.563 2095l-2.331.409L1977 2100l-1 11c-8.863 1.174-17.761 1.446-26.685 1.804l-5.436.225-14.902.609-16.086.66-31.504 1.289-25.615 1.047-3.684.151-7.409.304-69.481 2.838-59.571 2.437-69.206 2.834-7.387.302-3.671.15-25.565 1.048-31.185 1.274-15.9.65-14.579.594-5.251.216c-10.302.43-20.57.663-30.882.57-1.706-3.412-1.339-7.32-1.481-11.08l-.119-2.854-.373-9.382-.265-6.518-.547-13.692-.703-17.505-.543-13.479-.26-6.45-.359-9.054-.109-2.669c-.21-5.443-.274-10.869-.243-16.317l-1.901.185-7.912.753-2.697.264c-16.708 1.561-33.405 2.002-50.178 1.986h-2.983c-27.822-.024-55.658-1.205-83.329-4.188l-.146 2.584c-.66 10.79-1.75 21.511-2.92 32.256l-.601 5.586-1.573 14.544-1.609 14.904L1348 2119c-3.325 1.108-5.121.937-8.58.564l-3.54-.372-3.907-.431-4.137-.441-11.392-1.232-12.276-1.321-24.058-2.598-27.994-3.023-49.932-5.396-48.497-5.238-61.179-6.601-19.532-2.107-23.787-2.572-12.146-1.313-11.104-1.203-5.951-.639-3.532-.388-3.067-.332C1011 2084 1011 2084 1009 2083c.683-14.063 2.381-28.02 4-42l-3.566.586L993 2044l-2.463.338c-33.651 4.349-68.913 2.595-102.537-1.338l-2.145-.25c-68.257-8.066-135.113-27.156-199.855-49.75l-2.132-.744c-27.642-9.665-54.662-20.551-81.181-33.001l-7.589-3.486c-12.786-5.85-24.98-12.647-37.098-19.77l-2.351-1.38c-15.895-9.419-43.062-25.701-49.459-43.928-1.098-2.83-1.993-4.577-4.19-6.692-4.499-1.085-8.884-1.057-13.478-.933-3.855.099-7.709.044-11.565.015l-2.334-.004C420.418 1882.87 368.136 1857.067 322 1831l-3.104-1.742c-13.89-7.81-27.413-16.021-40.692-24.829-4.472-2.966-9.004-5.813-13.578-8.617-6.936-4.277-13.566-8.928-20.191-13.668-3.87-2.763-7.792-5.443-11.73-8.108-7.893-5.344-15.539-10.856-23.038-16.744l-9.604-7.229c-15.195-11.356-29.896-23.295-44.336-35.595l-5.383-4.554c-5.74-4.86-11.334-9.735-16.574-15.141-1.751-1.755-3.568-3.357-5.457-4.961-8.104-6.983-15.759-14.727-22.664-22.895-1.169-1.361-2.377-2.689-3.609-3.992-15.513-16.493-31.752-37.691-31.477-61.238l.023-2.777c.181-7.505 1.438-13.981 4.415-20.91l1.145-2.82c4.12-9.137 10.291-16.922 16.217-24.937 2.429-3.325 4.759-6.715 7.076-10.118l10.606-15.35 3.529-5.054 9.325-13.018c8.345-11.086 8.345-11.086 12.625-24.109 2.567-13.97 15.363-25.953 26.488-33.687 13.042-8.026 31.422-15.705 46.988-14.906-4.514-5.311-9.233-10.417-14-15.5s-9.487-10.187-14-15.5l-2.543-2.98L161 1379l-1.33-1.63c-7.971-9.773-15.533-19.809-22.948-30.009l-4.901-6.658c-20.687-28.064-39.121-58.101-55.359-88.94l-4.215-7.833C48.118 1199.288 29.789 1150.323 18 1101l-.505-2.1C12.258 1077.081 7.988 1055.242 5 1033l-.464-3.443C-5.279 954.519.189 877.809 145 550l1.712-2.24c6.728-8.777 13.566-17.421 20.772-25.811 2.407-2.822 4.749-5.687 7.078-8.574 3.877-4.765 7.952-9.311 12.109-13.832 1.935-2.114 3.83-4.25 5.703-6.418 7.243-8.319 14.775-16.355 22.629-24.098 1.838-1.867 3.55-3.782 5.246-5.777 6.928-8.058 14.626-15.575 22.727-22.445 2.614-2.331 5.065-4.813 7.523-7.305 3.638-3.682 7.346-7.207 11.285-10.566 2.328-2.033 4.587-4.128 6.845-6.237 5.427-5.068 10.959-9.896 16.753-14.548 2.636-2.164 5.161-4.412 7.68-6.711 3.902-3.547 7.91-6.885 12.051-10.148l8.629-6.973c7.019-5.734 14.102-11.357 21.32-16.839l6.817-5.231c10.179-7.821 20.451-15.447 30.998-22.764l6.393-4.525C395.853 317.155 412.935 306.089 430 295l2.919-1.899c14.473-9.383 29.373-18.08 44.233-26.832l10.258-6.073c14.959-8.848 30.211-17.107 45.59-25.195l3.194-1.685c31.161-16.406 62.613-32.288 94.818-46.546l10.062-4.504c93.78-42.248 191.979-75.506 803.551-180.016l3.778-.179L1474 1l3.63-.147c27.14-1.072 54.289-1.041 81.446-1.039zm-61.028 59.078c-4.18.219-8.362.313-12.547.388l-5.246.113-7.93.158c-8.933.178-17.81.378-26.71 1.22-4.385.382-8.778.47-13.176.603-18.289.651-36.536 2.081-54.784 3.43l-7.52.547c-60.844 4.4-121.381 11.869-181.687 20.979l-10.505 1.557c-39.042 5.766-78.032 12.961-116.52 21.68l-18.609 3.934c-10.081 2.063-20.046 4.491-30.016 7.031l-16.234 3.969-2.551.605-11.081 2.613c-16.228 3.799-16.228 3.799-32.265 8.319-6.627 2.009-13.331 3.695-20.042 5.4-8.758 2.234-17.404 4.641-25.998 7.44-4.97 1.615-9.957 3.074-15.002 4.435-56.594 15.473-112.53 35.515-166.733 57.907l-6.05 2.484a1962.06 1962.06 0 0 0-65.821 28.382l-5.641 2.545c-17.572 7.941-34.836 16.496-52.09 25.102l-5.267 2.623c-14.401 7.175-28.646 14.571-42.719 22.369l-6.143 3.377c-15.231 8.325-30.238 16.965-45.055 26.006l-9.289 5.618c-17.365 10.514-34.239 21.72-51.056 33.084l-4.784 3.227C417.482 373.795 406.193 381.814 395 390l-2.408 1.755c-15.299 11.157-30.126 22.794-44.788 34.772l-4.769 3.875c-10.174 8.261-20.116 16.79-29.82 25.598l-6.027 5.313c-7.727 6.738-15.306 13.681-22.477 21.01-1.702 1.669-3.465 3.212-5.281 4.756-5.053 4.398-9.768 9.113-14.492 13.859l-2.604 2.592c-4.439 4.446-8.741 8.945-12.81 13.733-1.603 1.828-3.288 3.536-5.024 5.238-3.036 2.989-5.845 6.117-8.625 9.344-2.049 2.356-4.147 4.661-6.25 6.969-3.899 4.32-7.6 8.768-11.258 13.293l-6.253 7.431c-6.446 7.51-12.46 15.31-18.41 23.216l-5.02 6.514C169.985 613.459 153.148 639.455 138 666l-1.525 2.669c-3.615 6.38-7.078 12.833-10.475 19.331l-1.831 3.493c-20.876 39.994-37.944 82.207-48.373 126.171l-2.663 10.84c-4.493 18.092-7.887 35.941-10.195 54.434l-.493 3.909c-2.821 23.069-3.818 46.046-3.757 69.278l.003 4.04c.02 19.794.719 39.2 3.31 58.835l.741 6.866c.641 5.431 1.547 10.774 2.646 16.13l3.008 15.441C77.244 1104.876 92.724 1150.25 113 1194l1.304 2.845c6.3 13.726 13.301 26.991 20.696 40.155l1.707 3.066c9.041 16.209 18.859 31.723 29.318 47.037l4.999 7.412c7.511 11.187 15.724 21.839 23.977 32.484l1.644 2.121c12.069 15.535 24.575 30.712 37.907 45.184l5.859 6.598c10.681 12.232 22.122 23.734 33.59 35.223l1.933 1.941 5.567 5.567 1.669 1.675c7.2 7.785 7.2 7.785 16.476 12.161l2.52.53 2.648.501 5.668 1.242 2.837.628c33.888 7.958 67.22 25.667 97.098 43.125l7.385 4.236c29.867 16.984 58.204 36.391 86.199 56.27l2.252 1.598c12.459 8.859 24.644 18.064 36.748 27.402l2.016 1.555c18.763 14.514 36.983 29.762 54.348 45.926l5.48 5.046 4.094 3.785 2.088 1.914c3.259 3.034 6.295 6.053 9.041 9.563 5.763 7.32 10.877 11.16 19.84 13.848l3.095.98 8.962 2.763 6.449 1.982 33.383 10.194 21.363 6.483 5.232 1.589 39.493 12.223c6.571 2.069 13.148 4.058 19.804 5.837 7.271 1.954 14.372 4.3 21.499 6.727A271.67 271.67 0 0 0 816 1708.5c7.505 2.007 14.832 4.41 22.184 6.914A271.96 271.96 0 0 0 855 1720.5c7.505 2.007 14.832 4.41 22.184 6.914A271.96 271.96 0 0 0 894 1732.5c7.505 2.007 14.832 4.41 22.184 6.914A271.96 271.96 0 0 0 933 1744.5c7.505 2.007 14.832 4.41 22.184 6.914A271.96 271.96 0 0 0 972 1756.5c7.505 2.007 14.832 4.41 22.184 6.914 6.25 2.111 12.532 3.94 18.903 5.644 5.336 1.45 10.558 3.13 15.788 4.922 14.071 4.748 28.273 9.075 42.475 13.41l11.681 3.594 9.153 2.803 4.305 1.326c12.003 3.722 23.808 5.775 36.312 6.84l22.805 2.344 3.034.349 6.278.726 61.645 6.691 53.043 5.74 44.805 4.813L1398 1831l2.148.279 13.852 1.846 3.286.444c8.946 1.246 17.828 2.819 26.714 4.431l2.328.421 14.421 2.631 4.894.896c9.229 1.683 18.418 3.434 27.566 5.519 2.973.658 2.973.658 6.792.533v-10l4.187.064c19.556.196 39.038-.693 58.568-1.601l27.647-1.248 6.29-.281 58.436-2.346 98.482-4.04 14.296-.629 2.784-.122L1840 1825v10h7l-2-14 6.789-.781c8.702-1.059 17.29-2.601 25.903-4.216l14.398-2.659 3.114-.571 38.734-6.773 52.438-9.125 2.76-.491 29.384-5.306 7.991-1.463 5.332-.977 35.15-6.224 3.908-.67 19.044-3.243L2110 1775l2.655-.47c13.661-2.462 26.511-6.7 39.595-11.28l6.593-2.275 13.536-4.683 27.413-9.371 14.575-4.96 5.819-1.981L2226 1738l23.313-7.937 2.924-.995 48.916-16.639 45.536-15.491 2.924-.996L2370 1689l17.472-5.949 11.638-3.963 27.816-9.45 13.398-4.54 6.338-2.144L2467 1656l3.018-1.039 8.924-3.129 2.693-.928c8.098-2.901 14.652-7.309 21.462-12.481 3.228-2.414 6.57-4.658 9.903-6.923l4-2.75 24-16.5 1.999-1.375 4.007-2.755 9.888-6.8L2588 1580l2.59-1.769 41.391-28.069 5.56-3.758 36.235-23.966 8.828-5.729L2693 1510l2.195-1.416c33.976-21.871 70.526-44.3 110.453-53.076 17.065-3.686 17.065-3.686 30.387-14.214 2.691-3.048 5.576-5.768 8.605-8.485 8.324-7.571 16.246-15.545 24.191-23.51l7.68-7.674 4.949-4.953 2.286-2.28c4.068-4.086 7.975-8.256 11.73-12.631 2.389-2.763 4.9-5.41 7.398-8.074a266.86 266.86 0 0 0 12.797-14.832c2.142-2.627 4.339-5.188 6.565-7.743 6.68-7.674 12.875-15.654 18.993-23.781l5.586-7.238c9.393-12.088 18.055-24.541 26.407-37.368l4.769-7.249c12.43-18.847 23.507-38.501 34.008-58.477l1.511-2.864c13.329-25.441 24.127-51.956 33.437-79.104l2.939-8.161c8.828-23.936 14.288-48.871 19.113-73.871l.759-3.783c1.821-9.2 3.108-18.397 4.122-27.718l.756-6.784L3076 1002l.27-2.673c.744-7.98.891-15.905.898-23.917l.01-4.179.007-8.741.021-8.763c.114-24.638-.513-49.223-3.956-73.664l-.504-3.677c-1.988-13.914-4.771-27.653-7.746-41.386l-.562-2.619c-1.047-4.821-2.192-9.608-3.437-14.381l-.559-2.154C3044.713 756.169 3019.219 699.518 2987 647l-1.66-2.71c-20.363-33.084-43.726-64.041-68.898-93.594l-4.316-5.106c-6.79-8.026-13.852-15.752-21.071-23.393l-6.098-6.623c-6.617-7.226-13.444-14.218-20.384-21.133l-5.501-5.507c-5.294-5.297-10.579-10.537-16.286-15.394-3.308-2.853-6.433-5.904-9.597-8.915-5.377-5.082-10.826-9.909-16.613-14.52-2.785-2.277-5.428-4.669-8.074-7.105-5.33-4.894-10.868-9.461-16.5-14l-3.652-2.996c-9.619-7.889-19.42-15.508-29.348-23.004l-2.015-1.527c-16.671-12.628-33.647-24.778-50.985-36.473l-2.527-1.707c-30.709-20.706-62.258-40.026-94.473-58.293l-3.227-1.834c-14.853-8.42-29.886-16.425-45.094-24.181l-3.945-2.012-1.944-.991-13.65-7.181c-5.651-3.031-11.343-5.935-17.141-8.676l-2.841-1.349L2511 254l-2.086-.978c-76.56-35.903-155.464-66.435-236.164-91.709l-3.118-.977-39.216-11.757-13.34-3.991c-8.914-2.734-17.877-5.122-26.939-7.315l-13.871-3.602c-26.616-7.126-53.317-13.922-80.266-19.671l-2.744-.587c-49.276-10.54-98.756-19.888-148.588-27.397l-13.305-2.094c-43.126-6.931-86.745-11.797-130.261-15.482l-16.079-1.459c-28.046-2.602-56.103-4.409-84.234-5.79l-11.636-.609c-41.013-2.192-81.957-2.857-123.028-2.831l-3.573.001-20.587.036-6.288.016a705.1 705.1 0 0 0-37.631 1.09zM1843 1894l1.513 39.045.703 18.138.681 17.565.257 6.639.606 15.477.489 12.951.25 6.614.108 3.127.112 2.872.092 2.535c.072 2.102.072 2.102 1.19 4.035 10.034.177 19.991-.377 30-1-.573-7.606-1.581-15.038-2.934-22.542l-.587-3.32-1.917-10.754-1.334-7.517-2.794-15.699-3.935-22.117-5.566-31.283-.551-3.095-.51-2.854-.44-2.468L1857 1893l-4.187-.062-2.355-.035c-2.579.103-4.935.567-7.457 1.098z" fill="#fcfcfd"/><path d="M1982.677 651.833l6.664-.005 23.574-.013 19.085-.021c47.938-.103 95.774.26 143.563 4.518l3.747.323c57.664 4.975 57.664 4.975 84.927 10.794l10.056 1.941c55.073 10.26 113.713 26.915 156.707 64.629l2.605 2.273L2441 743l1.945 1.746c19.878 18.672 33.386 45.07 40.055 71.254l.797 2.535c8.636 27.803 7.775 62.195 2.708 90.631l-1.606 9.595c-7.773 46.776-24.334 90.837-42.803 134.303l-6.607 15.634-10.823 25.632-11.982 28.365-5.933 14.053-2.375 5.625-42.75 101.25-1.187 2.812-2.375 5.626-5.93 14.046-10.771 25.508L2318 1347l-24.577 58.262-7.185 17.015-1.186 2.808-3.553 8.414-14.355 33.996L2253 1501l-1.14 2.703-6.588 15.624-1.994 4.728-2.762 6.554-.877 2.083-4.609 11.122-.975 2.384-1.847 4.547c-2.098 5.144-2.098 5.144-3.208 6.254a186.4 186.4 0 0 1-7.751.12l-2.49.003c-2.775.002-5.549-.004-8.324-.009h-5.941c-5.394 0-10.789-.006-16.183-.013l-16.892-.008-32.012-.021-36.435-.022L2028 1557c.651-3.427 1.469-6.427 2.844-9.636l1.163-2.734 1.278-2.962 1.344-3.146 4.434-10.334 3.125-7.303 7.369-17.189 8.467-19.761 13.438-31.351 18.24-42.551 4.494-10.488 1.479-3.451 9.693-22.604 34.246-80.185 10.32-24.209 31.838-75.363 7.568-18.051 48.382-120.211 2.437-6.549c2.149-5.761 3.948-11.508 5.404-17.482l.634-2.595c6.34-26.591 8.209-53.048-5.321-77.967-14.317-23.203-38.507-35.548-63.541-44.063-2.555-.889-5.08-1.847-7.611-2.801-38.504-14.002-82.085-17.252-122.569-20.739l-9.113-.807c-34.123-3.011-68.375-4.325-102.599-5.571l-3.702-.135c-66.408-2.395-132.814-2.234-199.256-2.048l-34.955.068-2.533.003-12.594.015L1580 875l-1.298 3.118-4.838 11.616-2.081 4.997-16.032 38.207-2.393 5.66-4.918 11.632-10.756 25.467-5.933 14.053-2.375 5.625-80.75 191.25-1.187 2.812-2.375 5.626-5.93 14.046-10.771 25.508L1405 1290l-17.312 41.063-1.201 2.843-9.706 22.98-8.469 20.052-1.201 2.845L1351 1418l-17.312 41.063-2.395 5.672-11.048 26.145-6.182 14.621-1.203 2.844-11.684 27.89-.873 2.115-3.916 9.543-1.332 3.248-1.141 2.798C1293 1556 1293 1556 1292 1557c-3.186.098-6.349.13-9.535.12l-3.071.003c-3.424.002-6.848-.004-10.272-.009h-7.33c-5.275 0-10.55-.003-15.825-.008l-22.88-.012-37.118-.018-36.065-.021-2.244-.001-11.144-.004L1044 1557l1.439-4.342.809-2.442a96.11 96.11 0 0 1 2.582-6.766l.997-2.361 1.058-2.476 1.133-2.673 3.668-8.627 2.58-6.084 5.242-12.355 9.534-22.598 18.269-43.338 1.201-2.843 9.706-22.98 8.469-20.052 1.201-2.845L1128 1356l24.577-58.262 7.185-17.015 1.186-2.808 3.553-8.414 13.139-31.117L1201 1183l24.577-58.262 7.185-17.015 1.186-2.808 3.553-8.414 13.139-31.117 25.307-60.011 10.639-25.192c32.189-75.928 62.256-152.666 90.414-230.18l1.1-3.026 20.041-55.552 1.974-5.519 3.686-10.341 1.638-4.585.749-2.117c1.7-4.746 1.7-4.746 2.814-5.86 1.486-.097 2.976-.124 4.465-.123l2.941-.006 3.269.009 3.443-.003 9.502.007 10.231.002 17.74.008 25.649.012 41.61.018 40.431.021 2.516.001 12.493.004L1687 663c1.461 2.647 2 3.894 2 7l2.688-1.75 1.512-.984c1.929-1.268 1.929-1.268 3.728-3.288 4.542-2.923 8.738-2.722 14.046-2.884l3.459-.152 9.595-.368 10.373-.417 18.818-.742 32.754-1.318 102.199-3.793c7.458-.194 14.897-.477 22.344-.92 24.022-1.36 48.11-1.547 72.164-1.551zM1616.68 367.832l5.96-.007 18.748-.01 16.835-.021c33.19-.081 66.292.258 99.441 2.08l13.799.699c40.574 2.025 82.142 5.598 121.94 13.914 2.962.586 5.932 1.093 8.91 1.592 23.988 4.029 48.05 9.123 71.091 17.037l9.308 3.092C2028.65 421.47 2077.206 444.128 2107 484l2.414 3.125c14.648 19.359 23.24 41.125 27.586 64.875l.544 2.822c1.631 9.279 1.77 18.354 1.706 27.74l-.008 2.401c-.07 17.178-1.502 33.244-5.242 50.037l-12.024.055-5.964.033c-7.875.029-15.726-.135-23.595-.441-21.283-.819-42.561-.844-63.857-.836h-9.675c-31.323.001-62.552.524-93.849 1.813l-39.285 1.001-3.401.062L1864 637l-.745-2.558c-1.916-6.423-3.882-12.597-6.942-18.567l-1.029-2.029c-3.314-6.295-7.468-11.615-12.283-16.846l-1.598-1.875c-29.402-32.485-86.634-36.835-127.165-39.503l-8.317-.566c-22.569-1.535-45.081-2.216-67.701-2.225l-7.726-.012-22.84-.008h-6.475c-44.192-.008-88.367.343-132.552 1.126l-3.736.066-77.591 1.591-50.861.968-2.158.032L1188 557l-.592 1.807c-1.311 3.972-2.618 7.921-4.222 11.786l-.988 2.393-1.049 2.514-1.125 2.716-3.649 8.784-2.568 6.194-5.26 12.675-6.984 16.838-8.375 20.199-8.5 20.5-21.107 50.799-21.423 51.589-11.717 28.262-3.182 7.674-1.061 2.559-6.435 15.526-22.181 53.389-21.423 51.589-9.597 23.148-5.31 12.807-2.125 5.125-1.062 2.563-4.25 10.25-2.125 5.126-5.308 12.801-9.618 23.202-22.181 53.389-21.423 51.589-11.717 28.262-3.182 7.674-1.061 2.559-6.435 15.526L909.5 1230l-16.062 38.625-1.072 2.583-11.518 27.909-.995 2.426-4.651 11.366-1.638 3.998-1.434 3.51C871 1323 871 1323 870 1324c-2.908.098-5.792.13-8.7.12l-2.799.003c-3.12.002-6.24-.004-9.36-.009h-6.68c-6.066 0-12.132-.006-18.198-.013l-18.994-.008-31.901-.018-32.864-.021-2.045-.001-10.155-.004L644 1324l1.395-4.237.785-2.383c1.285-3.729 2.807-7.348 4.347-10.977l1.032-2.455 2.214-5.254 4.813-11.435 2.544-6.049 13.745-32.897 2.519-6.049 5.073-12.183 11.284-27.086L700 1188l2.5-6 1.25-3 43.259-103.822.95-2.281 1.845-4.428 4.478-10.749 9.246-22.185L788.5 975.5l25.952-62.387 11.301-27.12L832 871l2.5-6 45-108 1.25-3 2.5-6 6.248-14.995 12.537-30.075 13.727-32.955 2.479-5.958 30.832-76.092 5.041-12.842 47.801-124.833 8.674-23.16.733-1.953 3.661-9.759 6.951-18.534 2.377-6.338.993-2.649L1026 386l48.75-.062 3.7-.003 114.425.565 3.338.036L1236 387l1 10 5.438-4.437 3.059-2.496c1.802-1.478 1.802-1.478 3.504-3.066 12.859-2.048 25.954-2.42 38.941-3.057l39.621-2.443 46.59-2.854 2.199-.111 5.799-.286c2.876-.186 5.713-.432 8.576-.734 5.725-.591 11.452-.905 17.199-1.199l3.419-.181 10.968-.573 7.639-.402 11.442-.602 21.012-1.129 93.867-4.088c6.401-.144 12.786-.33 19.177-.71 13.739-.795 27.471-.795 41.229-.799zM1810 893c51.227-.167 102.385.181 153.575 2.341l6.772.283c46.924 1.969 46.924 1.969 59.653 4.376-3.916 10.755-8.167 21.324-12.687 31.84l-5.614 13.129-1.175 2.752-12.462 29.592-1.128 2.698-6.806 16.287-10.066 24.077-1.12 2.677-18.639 44.279-17.366 41.295-1.121 2.679L1934 1130l-8.937 21.375-1.12 2.678-18.639 44.277-17.366 41.295-1.121 2.679L1879 1261l-8.937 21.375-1.12 2.678-18.639 44.277-17.366 41.295-1.121 2.679L1824 1392l-8.937 21.375-1.12 2.678-18.637 44.272-19.466 46.335-15.142 36.061-2.246 5.334L1753 1561l-67.27.782-31.255.363L1521 1563c.615-3.591 1.586-6.702 3.019-10.049l1.269-2.985 1.384-3.213 1.436-3.365 3.846-8.972 3.983-9.303 20.617-47.79 6.095-14.061 39.96-91.542 7.825-17.838 24.833-56.228 17.921-40.592 18.369-41.416 17.377-39.268L1707 1135.5l42.097-96.083 3.731-8.651 45.519-109.207L1810 893z" fill="red"/><path d="M2903.918 1475.328c9.459 7.596 16.942 17.773 20.082 29.672 1.317 13.641-1.468 23.754-9.984 34.555-9.567 11.211-20.389 21.414-32.016 30.445l-3.977 3.246-2.138 1.753-4.142 3.399c-4.14 3.374-8.367 6.541-12.744 9.602 6.246-3.067 12.435-6.218 18.574-9.492 52.578-27.986 52.578-27.986 76.426-24.508 13.519 5.255 22.166 21.558 30 33l1.627 2.368 9.809 14.34 7.314 10.667 1.343 1.953L3017 1635c-1.456 3.617-3.224 5.146-6.445 7.285l-2.74 1.841-2.94 1.937-6.047 4.051-3.014 2.006-11.189 7.63-3.836 2.641-1.886 1.299-9.903 6.811-4 2.75-72 49.5-2.003 1.377-3.973 2.73-10.411 7.174-2.182 1.506-4.117 2.848-1.889 1.303-1.643 1.137c-2.219 1.464-4.496 2.82-6.782 4.176l-29.309-42.515-11.415-16.632-3.894-5.735c-7.327-10.745-7.327-10.745-18.383-17.117-16.54-2.523-37.245 14.698-50 24 1.458 4.227 3.672 7.567 6.313 11.125a674.09 674.09 0 0 1 12.125 17.25l1.669 2.447 3.306 4.851 7.212 10.514 1.351 1.964 2.681 3.896 4.085 5.94 1.38 2.007 2.738 3.985 7.136 10.335 1.492 2.154 2.809 4.039c2.803 4.052 5.313 8.181 7.703 12.49-9.837 7.441-19.95 14.39-30.258 21.164a410.98 410.98 0 0 0-17.134 11.936c-3.875 2.822-7.829 5.521-11.795 8.212l-4.969 3.387-2.469 1.681-10.562 7.245-1.964 1.351-3.897 2.681-9.952 6.843-4 2.75-40 27.5-2.003 1.377-3.973 2.728-10.411 7.211-2.182 1.52-4.117 2.887c-3.338 2.319-6.428 4.212-10.314 5.527-7.968-10.987-15.612-22.184-23.238-33.41l-20.512-29.715-19.785-28.785-13.154-19.187-6.811-9.903-2.75-4-28.876-42.001-2.74-3.985-7.024-10.224-1.44-2.097-2.799-4.085a389.34 389.34 0 0 0-9.823-13.689L2499 1693c1.281-3.842 2.676-4.349 6.063-6.5l3.301-2.137 1.788-1.154c3.238-2.118 6.416-4.322 9.599-6.522l4.109-2.832 2.076-1.432L2536 1665.5l4-2.75 72-49.5 1.999-1.374 4.015-2.76 9.776-6.726c113.994-78.494 113.994-78.494 155.211-102.391l1.978-1.153c20.762-12.034 41.991-22.009 65.022-28.847l3.617-1.152c16.556-4.666 36.148-3.821 50.301 6.48zM622 1679c5.502.562 10.563 1.585 15.842 3.262l2.251.697 7.341 2.299 5.219 1.623 11.059 3.452 17.23 5.373 17.146 5.338 41.56 12.856 8.608 2.645a910.11 910.11 0 0 0 26.624 7.743c5.63 1.55 11.167 3.296 16.683 5.212 9.077 3.091 18.216 5.877 27.438 8.5-1.677 10.085-4.87 19.678-7.926 29.41l-1.772 5.687-4.665 14.929-7.433 23.811-2.574 8.229-7.962 26.244-4.107 13.44c-1.935 6.114-3.708 12.263-5.437 18.438-2.057 7.321-4.312 14.547-6.75 21.75L767 1910l-.698 2.083c-2.596 7.877-4.713 15.59-3.302 23.917 4.631 8.49 14.683 11.117 23.438 13.813 7.537 2.189 14.929 3.992 22.489 1.048 9.139-5.532 12.179-21.501 15.069-31.188l1.325-4.327 3.428-11.313 3.425-11.259 5.32-17.509 7.002-22.948.966-3.154 5.162-15.975c2.268-6.676 4.173-13.433 6.075-20.22 1.616-5.714 3.378-11.35 5.3-16.968 2.83-8.275 5.25-16.642 7.605-25.062L874 1756c8.317 1.079 15.925 3.549 23.823 6.26 5.685 1.94 11.373 3.695 17.177 5.24 7.505 2.006 14.832 4.41 22.184 6.914 5.565 1.879 11.143 3.569 16.816 5.086 7.423 1.987 14.692 4.318 21.955 6.826 5.25 1.798 10.539 3.424 15.867 4.974l25.643 7.747 4.486 1.384 9.274 2.864 11.893 3.668 9.206 2.841 4.391 1.354 6.086 1.88 3.492 1.078C1069 1815 1069 1815 1071 1816c-1.069 6.637-2.851 12.964-4.906 19.351-1.786 5.579-3.394 11.195-4.969 16.837-2.285 8.14-4.863 16.145-7.589 24.147A269.98 269.98 0 0 0 1048.5 1893c-1.987 7.423-4.318 14.692-6.826 21.955-2.047 5.976-3.865 12.009-5.634 18.072l-7.532 25.156-1.625 5.373c-10.727 35.725-10.727 35.725-19.883 46.444l-1.434 1.684c-11.723 11.723-34.452 12.641-50.042 12.645l-5.093-.048-7.685-.047c-15.481-.07-30.671-.948-45.996-3.297l-2.092-.317c-16.768-2.567-33.259-6.303-49.764-10.178l-8.128-1.856c-9.95-2.271-19.7-4.979-29.453-7.98-6.972-2.133-14.003-4.056-21.034-5.982-14.106-3.896-28-8.443-41.841-13.186l-2.267-.777C625.749 1940.654 625.749 1940.654 586 1902l-2.613-2.426c-5.615-5.349-9.813-10.692-13.387-17.574l-1.133-1.844c-3.718-9.245-.511-21.806 1.855-31.108l2.389-9.597c4.67-18.773 10.57-37.176 16.34-55.632l6.974-22.408 1.744-5.608 18.018-58.979.986-3.266 1.786-5.939.78-2.585.671-2.233C621 1681 621 1681 622 1679zm-294.12-199.086l6.795 3.434c15.267 7.747 29.779 16.65 44.324 25.652l4.602 2.82c31.891 19.615 62.406 41.606 92.082 64.402l5.973 4.559c16.153 12.315 31.817 25.28 46.842 38.952l4.729 4.24c6.299 5.59 12.334 11.403 18.287 17.356l4.652 4.613c6.392 6.356 12.291 12.934 17.834 20.059l1.553 1.996c9.385 12.309 15.243 23.209 14.447 39.004-.39 2.793-1.089 5.335-2 8l-.672 2.184c-2.453 7.048-8.399 20.352-15.328 23.816l-33.449-23.21L504.5 1694l-29.048-20.282-9.947-6.964-4.993-3.495-12.723-8.899-12.494-8.755-6.592-4.565-3.828-2.664-1.74-1.181c-3.047-2.137-4.622-3.828-6.135-7.194l.978-1.405 4.397-6.345 1.539-2.211 1.484-2.148 1.365-1.968c3.562-5.538 4.604-10.384 3.237-16.923-7.794-13.284-26.669-23.858-41-28-5.194-.627-9.61-.606-14.437 1.5-4.913 4.794-6.792 9.385-7.25 16.25.54 13.048 11.366 23.07 19.688 32.25l1.522 1.693c6.315 7.011 12.845 13.762 19.591 20.358 2.148 2.143 4.142 4.377 6.117 6.68 4.337 5.011 9.051 9.621 13.77 14.27 5.352 5.273 10.589 10.553 15.48 16.258 2.062 2.365 4.272 4.554 6.52 6.742 3.579 3.485 6.88 7.124 10.148 10.895 3.032 3.448 6.194 6.772 9.352 10.105 4.957 5.233 9.789 10.545 14.5 16l1.448 1.667L496 1738l1.702 2.006c38.552 45.624 38.552 45.624 36.595 76.368-1.279 11.297-6.991 21.11-14.297 29.625l-1.867 2.238c-6.112 6.733-14.918 12.062-24.121 12.955-48.113 1.838-99.429-31.731-139.011-56.193l-2.223-1.367c-40.715-25.098-80.064-52.833-117.021-83.193l-4.709-3.834-14.922-12.418-1.565-1.324c-10.78-9.23-20.979-19.095-31.009-29.127l-5.441-5.402c-6.833-6.8-13.183-13.718-19.109-21.334l-1.404-1.753c-11.752-14.701-21.511-30.74-19.596-50.247 2.146-14.852 10.868-27.447 20-39l2-1 36.484 25.234L209 1589l5 3.5 2.5 1.75 50.001 35.001 4.99 3.493 12.649 8.862L315 1663c-.629 3.717-2.276 6.101-4.457 9.141l-2.123 2.996-2.232 3.113c-9.625 12.161-9.625 12.161-12.187 26.75 5.848 15.083 25.018 26.025 39.063 32.438 7.176 3.072 14.659 3.693 22.25 1.688 6.054-4.787 9.89-12.736 11.008-20.289.725-9.927-4.254-17.598-10.424-24.954l-6.313-7.109c-2.028-2.271-3.985-4.597-5.945-6.927-6.148-7.293-12.629-14.245-19.181-21.174L316.5 1650c-5.723-6.409-11.636-12.641-17.524-18.899l-39.316-42.191-5.539-6.039L239 1566l-2.707-3.074c-17.005-19.418-35.934-42.82-35.566-70 1.118-11.966 8.521-23.497 17.609-31.07 33.595-23.398 77.753 1.691 109.544 18.058zM1105 1821c9.417.584 18.8 1.296 28.188 2.25l3.829.385 36.598 4.063 44.323 4.739 55.575 6.014 40.364 4.374c30.536 3.053 60.877 6.83 91.186 11.675l3.539.562c100.786 16.079 100.786 16.079 123.399 43.938 11.97 17.936 6.305 47.289 2.685 66.896-2.075 9.408-6.382 17.371-14.06 23.428-23.074 14.73-55.094 13.067-81.437 12.988l-3.677-.004c-29.86-.056-59.35-2.18-88.971-5.878l-19.953-2.288-6.968-.785c-8.53-.958-17.053-1.773-25.618-2.358l-5 46.438-2.789 27.512-.541 5.065-.768 7.142-.23 2.172c-.394 3.606-.935 7.122-1.672 10.672-16.926-1.205-33.756-2.912-50.605-4.913l-20.211-2.36-2.021-.234-33.6-3.493-59.542-6.396-5.948-.682-7.306-.843c-6.433-.738-12.856-1.358-19.315-1.814C1082 2069 1082 2069 1079 2068c-.503-11.014.97-21.943 2.125-32.875l.676-6.518 5.583-50.449 5.116-47.658 6.399-59.072.745-6.506.361-3.15 2.006-18.194.218-2.059.922-8.911.306-2.956.249-2.469c.285-2.119.732-4.122 1.294-6.183zm1381-140l6.409 18.152 2.183 6.175 3.127 8.876.994 2.788.91 2.608.807 2.288c.57 2.113.57 2.113.57 6.113l-3.205 1.063-59.17 19.875-2.492.852-24.177 8.284-15.41 5.279-5.938 2.038-8.229 2.82-2.49.859c-5.661 1.93-5.661 1.93-7.888 1.93l.569 1.619 5.839 16.643 2.183 6.216 3.127 8.921.994 2.819.91 2.608.807 2.301c.57 1.873.57 1.873.57 3.873l3.018-1.031 14.545-4.969 2.741-.936 32.864-11.204 3.035-1.033 15.029-5.106 26.01-8.99 4.101-1.45 7.299-2.627 3.179-1.126 2.696-.977c2.912-.645 4.676-.551 7.484.449 1.413 2.801 2.416 5.292 3.375 8.25l.873 2.533 1.814 5.387 2.942 8.658 1.934 5.672.929 2.731.848 2.55.754 2.252c.53 1.967.53 1.967.53 4.967l-77.423 26.717-10.17 3.452-12.152 4.117-4.543 1.541-6.261 2.116-3.57 1.209C2406 1860 2406 1860 2403 1860l1.022 3.067L2420 1911c5.801-1.193 11.389-2.657 16.99-4.575l2.258-.76 7.346-2.493 5.249-1.774 13.861-4.699 13.628-4.613 60.775-20.682 2.496-.853 4.577-1.566L2553 1867l3.189-1.234c3.131-.854 4.791-.953 7.811.234 1.171 1.777 1.171 1.777 1.945 4.121l.909 2.65.916 2.882.987 2.941 3.055 9.344 2.1 6.295 3.79 11.517.762 2.346C2579 1910 2579 1910 2579 1912l-3.297 1.063-72.174 24.014-32.89 11.19-52.514 17.858-44.562 15.188-3.172 1.078-15.982 5.432-28.475 9.679-9.304 3.162-28.555 9.725-12.971 4.427-6.125 2.094-8.478 2.895-2.477.85c-5.635 1.919-11.31 3.669-17.023 5.345l-25.437-73.75-.833-2.471-4.144-12.291-.813-2.413-1.611-4.781-12.536-36.919-11.371-33.363-1.266-3.736-6.155-18.171-2.29-6.757-1.122-3.312-5.997-17.438-1.268-3.638-2.424-6.916-1.087-3.112-.965-2.747C2161 1792 2161 1792 2161 1790l2.875-.969 27.466-9.258 14.104-4.754 72.686-24.672 31.205-10.607 17.699-6.001 3.58-1.214 34.447-11.711 2.888-.983 14.32-4.878 17.445-5.94 2.95-1.004 14.618-4.973 27.633-9.445 13.112-4.503 6.275-2.164 8.678-2.984 2.6-.906 2.397-.816 2.074-.715c1.949-.5 1.949-.5 5.949-.5zm-712 168l3.349 69.665.756 20.534.196 5.273 1.559 39.504.106 2.551 1.023 24.276.373 8.857.257 5.98c.298 7.125.453 14.228.381 21.359l3.277-.152 31.051-1.413 15.951-.726c24.588-1.141 49.103-2.068 73.721-1.709 1.282 16.323 1.097 32.64 1 49l-96.437 4.438-84.649 3.434-90.357 3.78-7.55.296c-16.67.657-33.319 1.286-50.005 1.053l-5.675-136.67-1.2-31.113-.255-6.577-.8-20.358-.251-6.393c-.491-13.916-.491-13.916-1.624-27.79-.349-3.758-.301-7.516-.258-11.287l.033-4.181.029-3.632c22.599-1.491 45.191-2.547 67.824-3.349l23.332-.854 2.637-.098 37.551-1.559 2.329-.106 19.816-.924c17.518-.85 34.971-1.303 52.511-1.111zm343-51c2.877 12.345 4.921 24.831 7.042 37.323l3.345 19.56.34 1.98L2134 1892l9.639 54.666 8.736 50.022.501 2.808 2.311 12.947 3.313 18.683.486 2.729c.54 3.089 1.014 6.004 1.014 9.146l-2.591.424-69.411 11.97-34.123 6.044-6.367 1.123-12.887 2.272-30.919 5.455-9.667 1.706-3.047.538-5.842 1.03-13.27 2.361-2.393.429-4.366.791c-2.758.494-5.307.856-8.117.856l-11.562-64.312-6.125-34.937L1930 1926l-9.437-53.687-.49-2.696-3.96-20.967-.427-2.074-1.155-5.485A37.53 37.53 0 0 1 1914 1833c16.198-3.278 32.454-6.131 48.75-8.875l42.563-7.5 56.624-9.986 7.075-1.209 3.484-.594 18.034-3.252 3.711-.703 6.985-1.35c5.353-1.022 10.323-1.803 15.774-1.53z" fill="#332c2b"/><path d="M1305 1885c47.499 3.462 47.499 3.462 60 15 4.731 7.096 2.055 20.173 1.25 28.5l-.187 2.207c-.73 6.629-2.709 12.347-7.938 16.668-7.75 4.03-14.674 3.971-23.25 3.938h-2.009c-11.489-.019-22.588-1.083-33.866-3.312-.1-6.565.148-12.992.805-19.523l.255-2.629.54-5.46.803-8.247c.89-9.113 1.879-18.14 3.598-27.141zm1436.438-301.375l2.121-.086c5.903 1.115 9.346 3.946 12.715 8.719l3.102 4.867 1.613 2.496c4.599 7.15 5.809 11.707 5.012 20.379-3.817 8.092-12.092 14.101-19.125 19.375l-2.229 1.682L2738 1646l-2.002 1.484-5.373 3.891-3.086 2.211L2725 1655c-3.623-1.208-4.108-2.226-6.187-5.348l-1.853-2.752-1.96-2.962-4.047-6.027-2.021-3.027-8.182-12.008-1.336-1.949c-1.683-2.451-3.342-4.841-5.273-7.105-1.141-1.82-1.141-1.82-.938-3.768 1.012-2.605 2.057-3.257 4.419-4.717l2.31-1.448 2.507-1.513 2.563-1.58c5.872-3.587 11.813-7.051 17.812-10.42l2.222-1.252c5.233-2.881 10.31-5.386 16.403-5.498z" fill="#fcfcfc"/><path d="M2868 1580l2 1c-1.218 3.654-2.144 3.958-5.437 5.75l-2.434 1.359-2.129.891-2-1 10-8z" fill="#e5e4e3"/></svg>